<svg aria-hidden="true" style="position: absolute; width: 0; height: 0; overflow: hidden;" version="1.1" xmlns="http://www.w3.org/2000/svg" xmlns:xlink="http://www.w3.org/1999/xlink">
<defs>
<symbol id="icon-logo" viewBox="0 0 32 32">
<!-- <path d="M0 0h32v32h-32v-32z"></path> -->
<path d="M29.571 14.138l-1.251-0.728 2.268-0.95-0.171-0.814-1.502-1.275 1.094-0.456-0.172-0.814-0.903-0.902 0.697-0.292-0.215-1.073-3.413-3.809-3.232 1.324 0.421 1.922-1.689-1.385-1.727 0.732 0.19 0.807-0.794-0.572-1.573 0.629 0.068 1.073-0.856-0.713-1.824 0.76 0.561 1.516-1.489-0.744c-0.426-0.181-1.159-0.083-1.637 0.167-0.594 0.311-1.136 0.605-1.408 1.62l-1.267-0.477-3.269 1.37 0.086 1.215-1.805-0.51-3.348 1.424 2.129 10.325 7.26-0.088c0.29 1.484 0.594 2.898 0.831 3.889 0.18 0.752 1.159 1.955 2.604 1.603 1.248-0.304 4.508-1.075 5.645-1.345 0.266-0.032 0.542-0.11 0.817-0.226 1.466-0.613 2.058-1.647 1.742-3.151l-0.208-0.996 0.71-0.018 1.158-0.485-0.122-0.584 1.416 0.042 1.159-0.485-0.227-1.079 2.174 0.265 1.158-0.484-0.415-1.975 0.329-4.253zM16.802 7.066l-0.022-0.019 0.009-0.003 0.013 0.023z"></path>
<path d="M16.887 23.213l-2.159 0.904 0.347 1.714c0.084 0.411 0.047 0.842-0.425 1.038-0.445 0.186-0.641-0.146-0.727-0.556l-1.185-5.652c-0.086-0.411-0.049-0.841 0.395-1.029 0.472-0.196 0.669 0.135 0.756 0.546l0.29 1.385 2.172-0.91-0.231-1.102c-0.456-2.176-1.74-2.193-3.324-1.53-0.441 0.184-0.854 0.424-1.202 0.731l-1.87-8.912-3.126 1.309 0.585 7.535-0.027 0.010-2.415-6.768-3.193 1.336 2.112 10.063 1.74-0.729-1.802-8.591 0.025-0.012 3.058 8.067 1.911-0.8-0.547-9.117 0.026-0.011 1.802 8.593 0.767-0.321c-0.097 0.485-0.096 1.045 0.041 1.7l0.959 4.578c0.484 2.304 1.914 2.398 3.352 1.795 1.833-0.767 2.571-2.059 2.177-3.939l-0.278-1.328zM16.384 16.565l1.408 6.708 1.448-0.606-1.407-6.707-1.449 0.605zM22.124 15.27l-0.214-1.017-3.471 1.453 0.213 1.017 1.012-0.423 1.194 5.69 1.448-0.606-1.195-5.69 1.013-0.424zM26.008 12.538l-1.412 0.589 0.027 2.89-0.015 0.007-1.093-2.444-1.412 0.592 2.118 3.724 0.519 2.469 1.448-0.606-0.519-2.468 0.34-4.754z"></path>
<path d="M11.806 14.395c0.323 1.535 1.285 1.595 2.245 1.194 0.959-0.402 1.742-1.191 1.419-2.727l-0.641-3.052c-0.321-1.535-1.283-1.595-2.241-1.194s-1.744 1.191-1.421 2.726l0.639 3.053zM12.813 9.69c0.304-0.127 0.436 0.094 0.494 0.367l0.79 3.769c0.058 0.273 0.033 0.56-0.273 0.688-0.304 0.127-0.436-0.094-0.494-0.367l-0.791-3.769c-0.055-0.272-0.031-0.56 0.274-0.688zM19.461 13.179l-0.368-7.142-1.352 0.566 0.456 5.434-0.017 0.008-1.434-5.028-1.552 0.651 2.367 6.306 1.9-0.796zM22.798 11.782l-1.406-6.708-1.449 0.606 1.408 6.708 1.447-0.606zM27.35 9.876l-0.214-1.016-1.552 0.65-0.458-2.186 1.499-0.629-0.213-1.016-1.499 0.628-0.309-1.47 1.553-0.65-0.215-1.018-2.999 1.256 1.407 6.708 3-1.256z"></path>
</symbol>

<symbol id="icon-search" viewBox="0 0 32 32">
<path fill="none" stroke="#fff" style="stroke: var(--color1, #fff)" stroke-linejoin="round" stroke-linecap="round" stroke-miterlimit="4" stroke-width="2.6667" d="M14.667 25.333c5.891 0 10.667-4.776 10.667-10.667s-4.776-10.667-10.667-10.667c-5.891 0-10.667 4.776-10.667 10.667s4.776 10.667 10.667 10.667z"></path>
<path fill="none" stroke="#fff" style="stroke: var(--color1, #fff)" stroke-linejoin="round" stroke-linecap="round" stroke-miterlimit="4" stroke-width="2.6667" d="M28 28.001l-5.8-5.8"></path>
</symbol>

<symbol id="icon-close" viewBox="0 0 32 32">
<path stroke-linejoin="miter" stroke-linecap="butt" stroke-miterlimit="4" stroke-width="2.1333" d="M8.533 8.533l14.933 14.933"></path>
<path stroke-linejoin="miter" stroke-linecap="butt" stroke-miterlimit="4" stroke-width="2.1333" d="M8.533 23.467l14.933-14.933"></path>
</symbol>

<symbol id="icon-favorite" viewBox="0 0 34 32">
<path fill="#ff6b08" style="fill: var(--color2, #ff6b08)" d="M17.231 31.705l-2.412-2.412c-8.96-7.926-14.818-13.268-14.818-19.815 0-5.342 4.135-9.477 9.477-9.477 2.929 0 5.858 1.378 7.754 3.618 1.895-2.24 4.825-3.618 7.754-3.618 5.342 0 9.477 4.135 9.477 9.477 0 6.548-5.858 11.889-14.818 19.815l-2.412 2.412z"></path>
</symbol>

<symbol id="arrow-left" viewBox="0 0 32 32">
<path stroke-linejoin="round" stroke-linecap="round" stroke-miterlimit="4" stroke-width="2.666" d="M25.334 16h-18.668M16 25.334l-9.334-9.334 9.334-9.334"></path>
</symbol>

<symbol id="arrow-right" viewBox="0 0 32 32">
<path stroke-linejoin="round" stroke-linecap="round" stroke-miterlimit="4" stroke-width="2.666" d="M6.666 16h18.668M16 25.334l9.334-9.334-9.334-9.334"></path>
</symbol>

<symbol id="icon-up-arrow" viewBox="0 0 32 32">
<path d="M31.574 22.244l-14.546-14.545c-0.263-0.263-0.627-0.426-1.028-0.426s-0.765 0.163-1.029 0.426l-14.545 14.545c-0.568 0.568-0.568 1.489 0 2.057s1.489 0.568 2.057 0l13.517-13.517 13.517 13.517c0.263 0.263 0.626 0.426 1.027 0.426 0.001 0 0.001 0 0.002 0h-0c0.001 0 0.001 0 0.002 0 0.401 0 0.764-0.163 1.027-0.426l0-0c0.568-0.568 0.568-1.489-0-2.057z"></path>
</symbol>
</defs>
</svg>
